<svg xmlns="http://www.w3.org/2000/svg" xmlns:xlink="http://www.w3.org/1999/xlink" version="1.1" x="0px" y="0px" viewBox="0 0 100 100" enable-background="new 0 0 100 100" xml:space="preserve"><path d="M36.523,64.4c-0.828,0-1.5,0.672-1.5,1.5v11.26c0,0.828,0.672,1.5,1.5,1.5c0.829,0,1.5-0.672,1.5-1.5V65.9  C38.023,65.072,37.353,64.4,36.523,64.4z M66.646,50.074l-9.008-1.762c-0.82-0.161-1.022-1.582-1.05-2.469  c3.315-2.841,5.425-7.654,5.425-12.492c0-6.623-5.389-12.012-12.012-12.012c-6.625,0-12.014,5.389-12.014,12.012  c0,4.837,2.107,9.649,5.422,12.49c-0.027,0.871-0.225,2.309-1.049,2.471l-9.008,1.762c-5.427,1.062-7.955,4.584-7.955,11.086v16  c0,0.828,0.672,1.5,1.5,1.5c0.829,0,1.5-0.672,1.5-1.5v-16c0-5.859,2.211-7.493,5.531-8.143l9.008-1.762  c3.078-0.602,3.625-4.113,3.46-6.175c-0.011-0.449-0.222-0.881-0.595-1.162c-2.925-2.212-4.814-6.359-4.814-10.567  c0-4.969,4.043-9.012,9.014-9.012c4.969,0,9.012,4.043,9.012,9.012c0,4.207-1.89,8.354-4.813,10.566  c-0.336,0.254-0.55,0.637-0.589,1.057c-0.16,1.705,0.175,4.501,2.104,5.74l-1.949,14.685h-4.164c-3.656,0-6.631,2.975-6.631,6.631  c0,3.655,2.975,6.63,6.631,6.63h18.369c0.111,0,0.221-0.012,0.33-0.017c0.032,0.002,0.061,0.017,0.092,0.017  c0.072,0,0.144-0.005,0.216-0.016c0.046-0.007,0.089-0.022,0.134-0.033c3.293-0.384,5.859-3.188,5.859-6.582V61.16  C74.602,54.658,72.073,51.136,66.646,50.074z M52.403,75.66h-2.802c-2.002,0-3.631-1.628-3.631-3.63s1.629-3.631,3.631-3.631h3.766  L52.403,75.66z M55.43,75.66l3.198-24.098l4.701,0.919l3.335,23.179H55.43z M71.602,72.029c0,1.399-0.805,2.603-1.967,3.209  l-3.186-22.137c3.107,0.702,5.152,2.428,5.152,8.059V72.029z"></path></svg>