<svg xmlns="http://www.w3.org/2000/svg" xmlns:xlink="http://www.w3.org/1999/xlink" version="1.1" x="0px" y="0px" viewBox="0 0 109 109" style="enable-background:new 0 0 109 109;" xml:space="preserve"><style type="text/css">

	.st0{fill:#1D1D1B;}

</style><path class="st0" d="M36.508,39.858L35.239,54.78c-1.269-0.531-2.107-1.834-1.984-3.277l1.058-12.153  c0.041-0.463,0.182-0.912,0.41-1.313c0.079,0.142,0.164,0.283,0.261,0.416c0.135,0.184,0.323,0.392,0.565,0.618l0.043,0.051  l0.084,0.068C35.878,39.368,36.151,39.597,36.508,39.858z M53.12,25.622c4.312,0,7.809-3.498,7.809-7.813  c0-4.312-3.497-7.809-7.809-7.809c-4.314,0-7.809,3.498-7.809,7.809C45.311,22.124,48.806,25.622,53.12,25.622z M63.014,74.572  l-0.342-5.691c-1.797-1.258-2.733-3.232-3.041-4.531c-0.021-0.086-0.038-0.173-0.051-0.263l-3.365-22.343  c-0.414-0.168-0.794-0.348-1.112-0.532c-0.288-0.162-0.515-0.317-0.697-0.473c-1.541-1.314-1.844-3.566-0.707-5.242  c0.737-1.079,1.961-1.727,3.276-1.727c0.65,0,1.303,0.164,1.881,0.468c0.058,0.032,0.116,0.065,0.17,0.099  c0.145,0.07,0.479,0.22,0.95,0.352l7.202,6.146l-1.832,12.198c-0.268,1.773,0.955,3.425,2.728,3.694  c0.165,0.025,0.325,0.037,0.487,0.037c1.579,0,2.965-1.156,3.208-2.766l2.1-13.98c0.165-1.109-0.251-2.225-1.104-2.953l-9.715-8.289  c-0.703-0.602-1.59-0.847-2.444-0.755c-0.07-0.01-0.141-0.019-0.214-0.019h-5.596H47.43h-2.962l0,0  c-1.009-0.055-2.03,0.359-2.71,1.207l-2.496,3.108c0.581,0.162,1.122,0.457,1.582,0.868c0.039,0.037,0.081,0.077,0.12,0.114  c0.264,0.222,1.671,1.324,3.67,1.324c0.402,0,0.802-0.044,1.209-0.134l0.223-0.277v19.861l-4.939,19.792  c-0.104,0.413-0.145,0.836-0.121,1.26l1.038,19.759c0.12,2.282,2.008,4.052,4.267,4.052c0.075,0,0.151-0.002,0.229-0.008  c2.359-0.121,4.169-2.134,4.045-4.494l-1.004-19.117l3.958-15.85l0.959,15.931c0.013,0.204,0.041,0.41,0.083,0.612l4.042,19.445  c0.419,2.017,2.197,3.407,4.182,3.407c0.289,0,0.582-0.03,0.875-0.09c2.311-0.48,3.797-2.746,3.316-5.056L63.014,74.572z   M39.423,75.208c-0.031-0.58,0.026-1.161,0.166-1.726l2.089-8.371c-0.03-0.001-0.056-0.002-0.083-0.006l0,0  c-0.872-0.073-1.417-0.425-1.767-1.137c-0.271-0.552-0.323-1.126-0.333-1.285l0.379-4.46l3.448,0.292l0.817-3.267l-3.982-0.339  l1.224-14.408c0.939,0.272,1.979,0.453,3.102,0.469v-4.766c-2.55-0.055-4.29-1.473-4.593-1.74c-0.033-0.033-0.069-0.066-0.104-0.098  c-0.915-0.818-2.286-0.822-3.191-0.005c-0.901,0.812-1.045,2.176-0.33,3.159c0.076,0.105,0.222,0.263,0.433,0.456l0,0  c0.334,0.303,0.833,0.694,1.467,1.091l-1.992,23.432c-0.003,0.047-0.005,0.092-0.007,0.14c-0.002,1.568,0.773,4.396,3.507,5.421  l-2.09,24.615c-0.808,0.462-1.381,1.298-1.468,2.296l-0.161,1.889c-0.037,0.439,0.288,0.824,0.726,0.862l4.252,0.36  c0.195,0.017,0.375-0.039,0.524-0.143c-0.578-0.855-0.938-1.871-0.997-2.972L39.423,75.208z M74.585,95.831l-0.283-1.875  c-0.148-0.988-0.776-1.786-1.611-2.195l-3.558-23.815c1.258-0.579,2.201-1.592,2.72-2.96c0.503-1.322,0.438-2.538,0.429-2.672  c-0.003-0.045-0.006-0.09-0.016-0.136l-0.73-4.858c-0.848,0.662-1.897,1.026-2.973,1.026c-0.081,0-0.159-0.005-0.239-0.008  l0.642,4.24c0,0.155-0.016,0.685-0.22,1.228c-0.299,0.78-0.827,1.19-1.719,1.322c-0.866,0.131-1.477-0.083-1.984-0.697  c-0.392-0.471-0.576-1.017-0.62-1.169l-0.668-4.429l3.855-0.582c-1.605-0.321-2.882-1.417-3.493-2.837l-0.857,0.129l-2.157-14.317  c0.182,0.007,0.366,0.013,0.556,0.013c0.935,0,1.979-0.111,3.081-0.406l-5.541-4.726c-0.472-0.155-0.801-0.312-0.938-0.385  c-0.049-0.029-0.097-0.057-0.147-0.084c-1.087-0.578-2.419-0.254-3.102,0.752c-0.684,1.002-0.5,2.358,0.421,3.145  c0.102,0.085,0.253,0.188,0.45,0.301c0.414,0.232,1.02,0.505,1.758,0.748l3.506,23.268c0.006,0.045,0.016,0.09,0.026,0.135  c0.363,1.53,1.771,4.098,4.671,4.46L69.4,92.255c-0.676,0.637-1.041,1.585-0.894,2.574l0.284,1.876  c0.065,0.435,0.472,0.733,0.904,0.668l4.221-0.635C74.352,96.672,74.652,96.267,74.585,95.831z"></path></svg>