<svg xmlns="http://www.w3.org/2000/svg" xmlns:xlink="http://www.w3.org/1999/xlink" version="1.1" x="0px" y="0px" viewBox="0 0 100 100" enable-background="new 0 0 100 100" xml:space="preserve"><g><path d="M97.369,0H2.631C1.18,0,0,1.179,0,2.631v94.738C0,98.821,1.18,100,2.631,100h94.738c1.453,0,2.631-1.179,2.631-2.631V2.631   C100,1.179,98.822,0,97.369,0z M27.764,94.736V22.821h19.605v71.915H27.764z M52.631,94.736V22.821h19.606v71.915H52.631z    M94.736,94.736H77.5V20.188c0-1.452-1.179-2.631-2.631-2.631H25.133c-1.453,0-2.632,1.179-2.632,2.631v74.548H5.263V5.264h89.474   V94.736z"></path><path d="M81.975,56.634h8.289c0.004,0,0.009,0,0.013,0c0.908,0,1.646-0.735,1.646-1.645c0-0.518-0.238-0.979-0.613-1.28   l-4.026-4.025c-0.644-0.644-1.685-0.644-2.327,0l-4.145,4.144c-0.47,0.47-0.611,1.176-0.355,1.79   C80.709,56.233,81.309,56.634,81.975,56.634z"></path><path d="M84.955,67.877c0.309,0.308,0.728,0.481,1.165,0.481c0.436,0,0.853-0.174,1.162-0.481l4.145-4.146   c0.47-0.47,0.612-1.176,0.357-1.793c-0.254-0.613-0.856-1.014-1.521-1.014h-8.289c-0.666,0-1.266,0.4-1.52,1.014   c-0.256,0.617-0.114,1.323,0.355,1.793L84.955,67.877z"></path></g></svg>