<svg xmlns="http://www.w3.org/2000/svg" xmlns:xlink="http://www.w3.org/1999/xlink" version="1.1" x="0px" y="0px" viewBox="0 0 100 100" style="enable-background:new 0 0 100 100;" xml:space="preserve"><style type="text/css">
	.st0{fill:none;stroke:#000000;stroke-width:8;stroke-linecap:round;stroke-linejoin:round;stroke-miterlimit:10;}
	.st1{fill:none;stroke:#000000;stroke-width:4;stroke-linecap:round;stroke-linejoin:round;stroke-miterlimit:10;}
	.st2{fill:#FFFFFF;}
</style><polygon points="41,20.2 46.6,25.7 46.6,18.2 37.7,9.3 28.8,18.2 28.8,25.7 34.5,20.2 34.5,30.9 41,30.9 "></polygon><polygon points="59,20.1 53.4,14.5 53.4,22 62.3,30.9 71.2,22 71.2,14.5 65.5,20.1 65.5,9.3 59,9.3 "></polygon><path d="M69.3,33.7H30.7c-4.6,0-8.3,3.7-8.3,8.3v38.7c0,4.6,3.7,8.3,8.3,8.3h38.7c4.6,0,8.3-3.7,8.3-8.3V42  C77.7,37.4,73.9,33.7,69.3,33.7z M75,80.7c0,3.1-2.5,5.6-5.6,5.6H30.7c-3.1,0-5.6-2.5-5.6-5.6V42c0-3.1,2.5-5.6,5.6-5.6h38.7  c3.1,0,5.6,2.5,5.6,5.6V80.7z"></path><path d="M48.5,84.4c-7.8,0-14.1-6.3-14.1-14.1c0-5.9,3.6-10.9,8.7-13l0.6,3.4c-3.5,1.8-5.9,5.4-5.9,9.6c0,5.9,4.8,10.7,10.7,10.7  c4.5,0,8.4-2.8,10-6.8l1.1,4.4c0,0.1,0.1,0.2,0.1,0.3C57.1,82.2,53,84.4,48.5,84.4z"></path><path d="M68.4,78.7l-4.5,1.1c-0.2,0-0.4,0.1-0.5,0.1c-1,0-1.9-0.7-2.2-1.7l-2.7-10.8h-10c-1.1,0-2-0.8-2.2-1.8l-3-15.7  c-0.6-0.7-1-1.7-1-2.7c0-2.3,1.9-4.2,4.2-4.2c2.3,0,4.2,1.9,4.2,4.2c0,1.7-1,3.1-2.4,3.8l1,4.9h7.4c1.2,0,2.3,1,2.3,2.3  c0,1.2-1,2.3-2.3,2.3h-6.5l0.5,2.6h9.8c1,0,1.9,0.7,2.2,1.7L65,74.9l2.3-0.5c1.2-0.3,2.4,0.5,2.7,1.7C70.4,77.2,69.6,78.4,68.4,78.7  z"></path></svg>