<svg xmlns:dc="http://purl.org/dc/elements/1.1/" xmlns:cc="http://creativecommons.org/ns#" xmlns:rdf="http://www.w3.org/1999/02/22-rdf-syntax-ns#" xmlns:svg="http://www.w3.org/2000/svg" xmlns="http://www.w3.org/2000/svg" xmlns:sodipodi="http://sodipodi.sourceforge.net/DTD/sodipodi-0.dtd" xmlns:inkscape="http://www.inkscape.org/namespaces/inkscape" version="1.1" x="0px" y="0px" viewBox="0 0 100 100" enable-background="new 0 0 100 99.864" xml:space="preserve"><path style="" d="m 49.984375,17.40625 c -18.003,0 -32.59375,14.59075 -32.59375,32.59375 0,18.007 14.59075,32.59375 32.59375,32.59375 18.004,0 32.625,-14.58675 32.625,-32.59375 0,-18.003 -14.621,-32.59375 -32.625,-32.59375 z m 0,5.40625 c 14.31906,0 26.08464,11.15492 27.09375,25.21875 l -43.03125,-20 c 4.48541,-3.27027 9.9739,-5.21875 15.9375,-5.21875 z m -19.34375,8.15625 23.59375,10.96875 c -0.13866,0.57223 -0.21875,1.16613 -0.21875,1.78125 0,4.16949 3.36494,7.53125 7.53125,7.53125 2.50617,0 4.72225,-1.21357 6.09375,-3.09375 l 9.40625,4.375 c -1.29185,13.78854 -12.94581,24.625 -27.0625,24.625 -14.978,0 -27.15625,-12.17425 -27.15625,-27.15625 0,-7.40253 2.99275,-14.12675 7.8125,-19.03125 z m 7.8125,8.15625 c -2.626,0 -4.75,2.122 -4.75,4.75 0,2.628 2.124,4.75 4.75,4.75 2.626,0 4.75,-2.122 4.75,-4.75 0,-2.628 -2.124,-4.75 -4.75,-4.75 z m 12.5,19.75 c -1.11893,0.0285 -2.25909,0.19262 -3.40625,0.5 -6.11817,1.63936 -9.9935,6.74964 -10.65625,12.6875 l 26.21875,-7.03125 c -2.87682,-3.90854 -7.30756,-6.27962 -12.15625,-6.15625 z" fill="#000000"></path></svg>