<svg xmlns="http://www.w3.org/2000/svg" xmlns:xlink="http://www.w3.org/1999/xlink" version="1.1" x="0px" y="0px" viewBox="0 0 100 100" enable-background="new 0 0 100 100" xml:space="preserve"><path d="M66.8,11.6L40,9.3c-3-0.3-5.7,2-5.9,5l-5.8,68.2c-0.3,3,2,5.7,5,5.9L60,90.7c3,0.3,5.7-2,5.9-5l5.8-68.2  C72.1,14.5,69.8,11.8,66.8,11.6z M50,15.4l5.9,0.5c0.3,0,0.5,0.3,0.4,0.5c0,0.3-0.3,0.5-0.5,0.4l-5.9-0.5c-0.3,0-0.5-0.3-0.4-0.5  C49.5,15.5,49.7,15.3,50,15.4z M46.8,86.8c-1.8-0.2-3.1-1.7-3-3.5c0.2-1.8,1.7-3.1,3.5-3c1.8,0.2,3.1,1.7,3,3.5  C50.2,85.6,48.6,87,46.8,86.8z M64.4,78.1c-0.1,0.6-0.6,1-1.2,1L32,76.4c-0.6-0.1-1-0.6-1-1.2l4.7-54.5c0.1-0.6,0.6-1,1.2-1  l31.2,2.7c0.6,0.1,1,0.6,1,1.2L64.4,78.1z"></path><path d="M67.2,96.5c-0.3,0-0.5-0.2-0.6-0.5s0.1-0.7,0.5-0.7c1.6-0.3,3-1.2,3.9-2.5c1-1.3,1.4-2.9,1.3-4.5c0-0.3,0.2-0.6,0.6-0.7  c0.3,0,0.6,0.2,0.7,0.6c0.2,1.9-0.4,3.8-1.5,5.3s-2.8,2.6-4.7,3C67.3,96.5,67.2,96.5,67.2,96.5z"></path><path d="M66.9,93.5c-0.3,0-0.5-0.2-0.6-0.5s0.1-0.7,0.5-0.7c0.8-0.2,1.4-0.6,1.9-1.2s0.7-1.4,0.6-2.2c0-0.3,0.2-0.6,0.6-0.7  c0.3,0,0.6,0.2,0.7,0.6c0.1,1.1-0.2,2.1-0.9,3c-0.6,0.9-1.6,1.5-2.6,1.7C67,93.5,66.9,93.5,66.9,93.5z"></path><path d="M27.1,12.4c-0.3,0-0.6-0.2-0.6-0.6C26.3,9.9,26.9,8,28,6.5s2.8-2.6,4.7-3c0.3,0,0.7,0.2,0.7,0.5s-0.1,0.7-0.5,0.7  C31.4,5,30,5.9,29,7.2s-1.4,2.9-1.3,4.5C27.8,12.1,27.5,12.4,27.1,12.4L27.1,12.4z"></path><path d="M30.1,11.8c-0.3,0-0.6-0.2-0.6-0.6c-0.1-1.1,0.2-2.1,0.9-3C31,7.3,31.9,6.8,33,6.5c0.3-0.1,0.7,0.1,0.7,0.5  c0.1,0.3-0.1,0.7-0.5,0.7c-0.8,0.2-1.4,0.6-1.9,1.2c-0.5,0.6-0.7,1.4-0.6,2.2C30.7,11.5,30.5,11.8,30.1,11.8L30.1,11.8z"></path></svg>