<svg xmlns="http://www.w3.org/2000/svg" xmlns:xlink="http://www.w3.org/1999/xlink" version="1.1" x="0px" y="0px" viewBox="0 0 100 100" enable-background="new 0 0 100 100" xml:space="preserve"><g display="none"><rect x="5" y="4.5" display="inline" fill="#000000" width="90" height="91"></rect></g><g><g><circle cx="29.7" cy="14.9" r="7.4"></circle><path d="M84.8,72.1c-0.7,0-1.5,0.1-2.2,0.2L78,69.7l0.4,0.1c0.1,0,0.2,0,0.3,0c1.3,0,2.4-1,2.5-2.2c0.2-1.4-0.8-2.7-2.2-2.8    l-10.7-1.3L68,62.7l7.7-5.6l-2.4-3.3l-6.8,5l-2-5.4c-0.2-0.4-0.4-0.8-0.6-1.1l11.5-17.3c0,0-13.9-6-24.1-1.3    c-8,3.7-8.1,13-7.7,16.9l-1.2-0.7c-0.1-1-0.6-1.9-1.5-2.6l-8.4-6l2.2-11.1c0.4-2.1-1-4.1-3-4.5l-7.5-1.4c-2.1-0.4-4.1,1-4.5,3    L15.3,49c-0.3,1.7-0.2,3.6,0.3,5.2l1.6,4.9l-2.2,7.2L5.3,83.5c-0.6,1.2-0.2,2.7,1,3.3l1.8,1c1.1,0.7,2.6,0.3,3.3-0.8l8.5-12.7    l-1,13.7c0,1.3,1,2.5,2.3,2.6l2.1,0.2c1.3,0.1,2.5-0.8,2.7-2.1l2.7-18.8c0.1-0.6,0.1-1.2,0-1.8l-1.1-9.9l2.8-6.8l0.5-2.5l5.7,4.1    c0.6,0.4,1.3,0.7,2.1,0.7c0.5,0,1.1-0.1,1.6-0.4l3.4,1.9c0.2,3.5,1.5,9.1,6.4,13l-2,4.3c-0.8-0.2-1.6-0.3-2.4-0.3    c-5.6,0-10.2,4.6-10.2,10.2s4.6,10.2,10.2,10.2s10.2-4.6,10.2-10.2c0-1-0.2-2-0.4-2.9l13.2-7h5.8l3.7,2.1    c-2.2,1.9-3.6,4.7-3.6,7.8c0,5.6,4.6,10.2,10.2,10.2S95,87.9,95,82.3S90.4,72.1,84.8,72.1z M45.7,88.4c-3.4,0-6.1-2.7-6.1-6.1    s2.7-6.1,6.1-6.1c0.2,0,0.4,0,0.6,0l-2.5,5.2c0,0,0,0.1,0,0.1c0,0.1-0.1,0.1-0.1,0.2c0,0.1,0,0.1,0,0.2c0,0.1,0,0.1,0,0.2    c0,0.1,0,0.1,0,0.2c0,0.1,0,0.1,0,0.2c0,0.1,0,0.1,0,0.2c0,0.1,0,0.1,0,0.2c0,0.1,0.1,0.1,0.1,0.2c0,0,0,0.1,0,0.1c0,0,0,0,0,0    c0.1,0.1,0.2,0.3,0.3,0.4c0,0,0.1,0,0.1,0.1c0.1,0.1,0.2,0.2,0.3,0.2c0,0,0.1,0.1,0.1,0.1c0,0,0.1,0,0.1,0.1    c0.1,0,0.2,0.1,0.2,0.1c0.1,0,0.1,0,0.2,0.1c0.2,0,0.3,0.1,0.5,0.1l0,0c0,0,0,0,0,0c0.2,0,0.4,0,0.5-0.1c0.1,0,0.1,0,0.2-0.1    c0.1,0,0.2-0.1,0.3-0.1l5.1-2.7c0,0.3,0.1,0.6,0.1,0.9C51.8,85.7,49.1,88.4,45.7,88.4z M53.6,75.8c-0.5-0.6-1.1-1.2-1.8-1.7    l1.8-3.9c1.9,0.9,4.1,1.5,6.8,1.9L53.6,75.8z M84.8,88.4c-3.4,0-6.1-2.7-6.1-6.1c0-2.7,1.7-4.9,4.1-5.8v5.8c0,1.1,0.9,2,2,2    c1.1,0,2-0.9,2-2v-5.8c2.4,0.8,4.1,3.1,4.1,5.8C90.9,85.7,88.2,88.4,84.8,88.4z"></path></g></g></svg>