<svg xmlns="http://www.w3.org/2000/svg" xmlns:xlink="http://www.w3.org/1999/xlink" version="1.1" x="0px" y="0px" viewBox="0 0 100 92.316" enable-background="new 0 0 100 92.316" xml:space="preserve"><g><path d="M54.428,16.262c4.4-0.881,7.262-5.212,6.372-9.662c-0.894-4.458-5.199-7.341-9.602-6.459   c-4.41,0.884-7.259,5.197-6.367,9.657C45.72,14.245,50.018,17.144,54.428,16.262z"></path><path d="M83.241,82.937V57.073c0-8.877-5.659-15.572-13.163-15.572h-0.419c-1.054,0-2.066,0.146-3.034,0.396L52.67,37.139   l-4.59-18.076c-0.587-2.686-3.402-5.762-7.641-5.891c-1.385-0.042-3.668,0.602-4.814,1.825l-16.09,15.931   c-2.645,2.352-2.771,5.709-2.789,8.06v46.706c0,1.88,0.653,3.451,1.96,4.725c1.306,1.263,2.859,1.896,4.659,1.896   c1.88,0,3.473-0.634,4.78-1.896c1.307-1.273,1.962-2.845,1.962-4.725V44.676L41.71,32.984l3.901,8.884   c0.026,0.061,0.067,0.111,0.097,0.17c0.053,0.106,0.111,0.206,0.173,0.305c0.103,0.168,0.215,0.325,0.34,0.475   c0.074,0.088,0.148,0.176,0.229,0.257c0.145,0.147,0.305,0.277,0.472,0.4c0.082,0.061,0.157,0.126,0.242,0.18   c0.262,0.164,0.538,0.306,0.835,0.406l10.96,3.739c-1.554,2.558-2.463,5.738-2.463,9.272v33.016c0,0.992,0.804,1.797,1.796,1.797   c0.991,0,1.795-0.805,1.795-1.797V69.048h19.562V82.95c-1.756,0.716-2.997,2.438-2.997,4.452c0,2.657,2.154,4.812,4.812,4.812   c2.658,0,4.813-2.155,4.813-4.812C86.277,85.374,85.019,83.646,83.241,82.937z M64.659,49.744c0.433,0.147,0.87,0.216,1.303,0.216   c1.676,0,3.242-1.056,3.813-2.729c0.244-0.716,0.261-1.449,0.112-2.136h0.19c5.181,0,9.145,4.645,9.533,10.958H60.126   c0.169-2.753,1.021-5.182,2.356-7.052L64.659,49.744z M60.088,65.456v-5.809h19.562v5.809H60.088z"></path></g></svg>